<svg xmlns="http://www.w3.org/2000/svg" viewBox="0 0 64 64" fill="#3f7d39">
  <path d="M32 4C16.536 4 4 14.536 4 28c0 11.184 9.12 20.544 21.456 22.944.832.176 1.968.544 2.256 1.248.256.64.168 1.648.08 2.304l-.368 2.176c-.112.64-.512 2.512 2.208 1.376 2.72-1.136 14.672-8.64 20.016-14.8C54.464 38.176 60 33.488 60 28 60 14.536 47.464 4 32 4zm-9.6 31.2h-6.4c-.88 0-1.6-.72-1.6-1.6V22.4c0-.88.72-1.6 1.6-1.6s1.6.72 1.6 1.6v9.6h4.8c.88 0 1.6.72 1.6 1.6s-.72 1.6-1.6 1.6zm4.8-1.6c0 .88-.72 1.6-1.6 1.6s-1.6-.72-1.6-1.6V22.4c0-.88.72-1.6 1.6-1.6s1.6.72 1.6 1.6v11.2zm12.8 0c0 .64-.384 1.216-.976 1.472a1.6 1.6 0 01-1.744-.336L32.8 29.6v4c0 .88-.72 1.6-1.6 1.6s-1.6-.72-1.6-1.6V22.4c0-.64.384-1.216.976-1.472a1.6 1.6 0 011.744.336l4.48 5.136v-4c0-.88.72-1.6 1.6-1.6s1.6.72 1.6 1.6v11.2zm8-9.6h-4.8v2.4h4.8c.88 0 1.6.72 1.6 1.6s-.72 1.6-1.6 1.6H43.2v2.4h4.8c.88 0 1.6.72 1.6 1.6s-.72 1.6-1.6 1.6h-6.4c-.88 0-1.6-.72-1.6-1.6V22.4c0-.88.72-1.6 1.6-1.6H48c.88 0 1.6.72 1.6 1.6s-.72 1.6-1.6 1.6z"/>
</svg>

